<svg width="40" height="40" viewBox="0 0 40 40" fill="none" xmlns="http://www.w3.org/2000/svg">
<circle cx="20" cy="20" r="20" fill="#FEA30C"/>
<path fill-rule="evenodd" clip-rule="evenodd" d="M28 9V17H28L28 18L28 19L28 20.9943C28.0087 22.5165 27.1594 22.9983 24.7914 23.7079C23.4034 24.1238 23 24.3523 23 24.5C23 25.2676 23.0703 25.783 23.2201 26.3825C23.1912 26.2665 23.362 26.927 23.3997 27.103C23.466 27.4125 23.5 27.6942 23.5 28C23.5 29.6609 21.9377 31 20 31C18.0623 31 16.5 29.6609 16.5 28C16.5 27.6942 16.534 27.4125 16.6003 27.103C16.638 26.927 16.8088 26.2665 16.7799 26.3825C16.9297 25.783 17 25.2676 17 24.5C17 24.3513 16.5977 24.1233 15.2127 23.7078C12.8477 22.9983 12 22.518 12 21V19V17V9H28ZM14 21V19H20.9264H26L26 21C26.0008 21.1505 25.6005 21.3776 24.2173 21.7921L24.213 21.7934C21.8493 22.5017 21 22.9827 21 24.5C21 25.4407 21.0922 26.117 21.2799 26.8675C21.262 26.796 21.4167 27.3942 21.4441 27.522C21.4826 27.7018 21.5 27.846 21.5 28C21.5 28.482 20.8957 29 20 29C19.1043 29 18.5 28.482 18.5 28C18.5 27.846 18.5174 27.7018 18.5559 27.522C18.5833 27.3942 18.738 26.796 18.7201 26.8675C18.9078 26.117 19 25.4407 19 24.5C19 22.982 18.1523 22.5017 15.7873 21.7922C14.4023 21.3767 14 21.1487 14 21ZM14 17V11H16V15H18V11H20V14H22V11H26V17H14Z" fill="white"/>
</svg>
