<svg width="40" height="40" viewBox="0 0 40 40" fill="none" xmlns="http://www.w3.org/2000/svg">
<circle cx="20" cy="20" r="20" fill="#1ECECB"/>
<path fill-rule="evenodd" clip-rule="evenodd" d="M27.6278 20C29.7205 23.4222 30.2461 26.7244 28.4853 28.4853C26.7244 30.2461 23.4223 29.7205 20 27.6278C16.5777 29.7205 13.2756 30.2461 11.5147 28.4853C9.75389 26.7244 10.2795 23.4223 12.3722 20C10.2795 16.5777 9.75389 13.2755 11.5147 11.5147C13.2756 9.75387 16.5777 10.2795 20 12.3722C23.4223 10.2795 26.7244 9.75387 28.4853 11.5147C30.2461 13.2755 29.7205 16.5777 27.6278 20ZM17.1716 17.1716C18.098 16.2452 19.0568 15.4424 20 14.7745C20.9432 15.4424 21.902 16.2452 22.8284 17.1716C23.7548 18.0979 24.5576 19.0567 25.2255 20C24.5576 20.9432 23.7548 21.902 22.8284 22.8284C21.902 23.7548 20.9432 24.5576 20 25.2255C19.0568 24.5576 18.098 23.7548 17.1716 22.8284C16.2452 21.902 15.4424 20.9432 14.7745 20C15.4424 19.0567 16.2452 18.0979 17.1716 17.1716ZM24.2426 15.7573C25.0265 16.5412 25.7377 17.3521 26.3666 18.1706C27.632 15.8205 27.9326 13.7904 27.0711 12.9289C26.2096 12.0674 24.1795 12.368 21.8294 13.6334C22.6479 14.2622 23.4588 14.9735 24.2426 15.7573ZM24.2426 24.2426C25.0265 23.4588 25.7377 22.6479 26.3666 21.8293C27.632 24.1795 27.9326 26.2096 27.0711 27.0711C26.2096 27.9325 24.1795 27.632 21.8293 26.3666C22.6479 25.7377 23.4588 25.0265 24.2426 24.2426ZM13.6334 21.8293C14.2623 22.6479 14.9735 23.4588 15.7574 24.2426C16.5412 25.0265 17.3521 25.7377 18.1707 26.3666C15.8205 27.632 13.7904 27.9325 12.9289 27.0711C12.0675 26.2096 12.368 24.1795 13.6334 21.8293ZM18.1706 13.6334C15.8205 12.368 13.7904 12.0674 12.9289 12.9289C12.0675 13.7904 12.368 15.8205 13.6334 18.1706C14.2623 17.3521 14.9735 16.5412 15.7574 15.7573C16.5412 14.9735 17.3521 14.2622 18.1706 13.6334ZM21 20C21 19.4477 20.5523 19 20 19C19.4477 19 19 19.4477 19 20C19 20.5523 19.4477 21 20 21C20.5523 21 21 20.5523 21 20Z" fill="white"/>
</svg>
