<svg width="496" height="112" viewBox="0 0 496 112" fill="none" xmlns="http://www.w3.org/2000/svg">
<g opacity="0.1">
<circle cx="8" cy="72" r="8" fill="#D1EDEF"/>
<circle cx="8" cy="104" r="8" fill="#D1EDEF"/>
<circle cx="8" cy="40" r="8" fill="#D1EDEF"/>
<circle cx="8" cy="8" r="8" fill="#D1EDEF"/>
<circle cx="40" cy="72" r="8" fill="#D1EDEF"/>
<circle cx="40" cy="104" r="8" fill="#D1EDEF"/>
<circle cx="40" cy="40" r="8" fill="#D1EDEF"/>
<circle cx="40" cy="8" r="8" fill="#D1EDEF"/>
<circle cx="72" cy="72" r="8" fill="#D1EDEF"/>
<circle cx="72" cy="104" r="8" fill="#D1EDEF"/>
<circle cx="72" cy="40" r="8" fill="#D1EDEF"/>
<circle cx="72" cy="8" r="8" fill="#D1EDEF"/>
<circle cx="104" cy="72" r="8" fill="#D1EDEF"/>
<circle cx="104" cy="104" r="8" fill="#D1EDEF"/>
<circle cx="104" cy="40" r="8" fill="#D1EDEF"/>
<circle cx="104" cy="8" r="8" fill="#D1EDEF"/>
<circle cx="136" cy="72" r="8" fill="#D1EDEF"/>
<circle cx="136" cy="104" r="8" fill="#D1EDEF"/>
<circle cx="136" cy="40" r="8" fill="#D1EDEF"/>
<circle cx="136" cy="8" r="8" fill="#D1EDEF"/>
<circle cx="168" cy="72" r="8" fill="#D1EDEF"/>
<circle cx="168" cy="104" r="8" fill="#D1EDEF"/>
<circle cx="168" cy="40" r="8" fill="#D1EDEF"/>
<circle cx="168" cy="8" r="8" fill="#D1EDEF"/>
<circle cx="200" cy="72" r="8" fill="#D1EDEF"/>
<circle cx="200" cy="104" r="8" fill="#D1EDEF"/>
<circle cx="200" cy="40" r="8" fill="#D1EDEF"/>
<circle cx="200" cy="8" r="8" fill="#D1EDEF"/>
<circle cx="232" cy="72" r="8" fill="#D1EDEF"/>
<circle cx="232" cy="104" r="8" fill="#D1EDEF"/>
<circle cx="232" cy="40" r="8" fill="#D1EDEF"/>
<circle cx="232" cy="8" r="8" fill="#D1EDEF"/>
<circle cx="264" cy="72" r="8" fill="#D1EDEF"/>
<circle cx="264" cy="104" r="8" fill="#D1EDEF"/>
<circle cx="264" cy="40" r="8" fill="#D1EDEF"/>
<circle cx="264" cy="8" r="8" fill="#D1EDEF"/>
<circle cx="296" cy="72" r="8" fill="#D1EDEF"/>
<circle cx="296" cy="104" r="8" fill="#D1EDEF"/>
<circle cx="296" cy="40" r="8" fill="#D1EDEF"/>
<circle cx="296" cy="8" r="8" fill="#D1EDEF"/>
<circle cx="328" cy="72" r="8" fill="#D1EDEF"/>
<circle cx="328" cy="104" r="8" fill="#D1EDEF"/>
<circle cx="328" cy="40" r="8" fill="#D1EDEF"/>
<circle cx="328" cy="8" r="8" fill="#D1EDEF"/>
<circle cx="360" cy="72" r="8" fill="#D1EDEF"/>
<circle cx="360" cy="104" r="8" fill="#D1EDEF"/>
<circle cx="360" cy="40" r="8" fill="#D1EDEF"/>
<circle cx="360" cy="8" r="8" fill="#D1EDEF"/>
<circle cx="392" cy="72" r="8" fill="#D1EDEF"/>
<circle cx="392" cy="104" r="8" fill="#D1EDEF"/>
<circle cx="392" cy="40" r="8" fill="#D1EDEF"/>
<circle cx="392" cy="8" r="8" fill="#D1EDEF"/>
<circle cx="424" cy="72" r="8" fill="#D1EDEF"/>
<circle cx="424" cy="104" r="8" fill="#D1EDEF"/>
<circle cx="424" cy="40" r="8" fill="#D1EDEF"/>
<circle cx="424" cy="8" r="8" fill="#D1EDEF"/>
<circle cx="456" cy="72" r="8" fill="#D1EDEF"/>
<circle cx="456" cy="104" r="8" fill="#D1EDEF"/>
<circle cx="456" cy="40" r="8" fill="#D1EDEF"/>
<circle cx="456" cy="8" r="8" fill="#D1EDEF"/>
<circle cx="488" cy="72" r="8" fill="#D1EDEF"/>
<circle cx="488" cy="104" r="8" fill="#D1EDEF"/>
<circle cx="488" cy="40" r="8" fill="#D1EDEF"/>
<circle cx="488" cy="8" r="8" fill="#D1EDEF"/>
</g>
</svg>
