<svg width="200" height="53" viewBox="0 0 200 53" fill="none" xmlns="http://www.w3.org/2000/svg">
<path d="M118.567 22.6201H123.845V41.4702H118.567V39.0197C116.682 41.8472 114.232 42.0357 112.724 42.0357C106.88 42.0357 103.11 37.5117 103.11 32.0452C103.11 26.3901 106.88 22.0546 112.347 22.0546C113.855 22.0546 116.682 22.2431 118.379 25.0706V22.6201H118.567ZM108.765 32.0452C108.765 35.0612 110.839 37.3232 114.043 37.3232C117.059 37.3232 119.321 35.0612 119.321 32.0452C119.321 29.0291 117.248 26.7671 114.043 26.7671C111.027 26.7671 108.765 29.0291 108.765 32.0452ZM134.213 27.1441V41.4702H128.935V27.1441H126.861V22.6201H128.935V16.2111H134.213V22.6201H137.795V27.1441H134.213ZM150.236 27.1441C148.916 26.0131 147.785 25.8246 147.22 25.8246C145.9 25.8246 145.146 26.3901 145.146 27.3326C145.146 27.8981 145.335 28.4636 146.843 29.0291L148.162 29.4062C149.67 29.9717 151.932 30.5372 152.875 32.0452C153.44 32.7992 153.817 33.9302 153.817 35.2497C153.817 36.9462 153.252 38.6427 151.744 39.9622C150.236 41.2817 148.351 42.0357 146.089 42.0357C142.13 42.0357 140.057 40.1507 138.737 38.8312L141.565 35.6267C142.696 36.7577 144.204 37.8887 145.712 37.8887C147.22 37.8887 148.351 37.1347 148.351 35.8152C148.351 34.6842 147.408 34.1187 146.654 33.9302L145.523 33.5532C144.204 32.9877 142.696 32.4222 141.565 31.2912C140.622 30.3487 140.057 29.2176 140.057 27.7096C140.057 25.8246 140.999 24.3166 141.942 23.3741C143.45 22.2431 145.335 22.0546 146.843 22.0546C148.162 22.0546 150.424 22.2431 152.875 24.1281L150.236 27.1441ZM161.734 25.0706C163.619 22.4316 166.258 22.0546 167.766 22.0546C173.233 22.0546 177.003 26.3901 177.003 32.0452C177.003 37.7002 173.233 42.0357 167.578 42.0357C166.447 42.0357 163.619 41.8472 161.546 39.0197V41.4702H156.456V9.802H161.734V25.0706ZM161.169 32.0452C161.169 35.0612 163.242 37.3232 166.447 37.3232C169.463 37.3232 171.725 35.0612 171.725 32.0452C171.725 29.0291 169.651 26.7671 166.447 26.7671C163.242 26.7671 161.169 29.0291 161.169 32.0452ZM185.674 38.6427L176.626 22.6201H182.846L188.69 33.3647L193.968 22.6201H200L184.92 51.4608H178.888L185.674 38.6427ZM101.791 25.8246H88.5957V31.1027H95.5702C94.4392 34.6842 91.8002 37.1347 86.8992 37.1347C81.4326 37.1347 77.4741 32.6107 77.4741 27.1441C77.4741 21.6776 81.2441 16.9651 86.7107 16.9651C89.7267 16.9651 92.7427 18.4731 94.6277 20.9236L98.9633 18.0961C96.1357 14.1375 91.6117 11.8755 86.7107 11.8755C78.4166 11.8755 71.6306 18.6616 71.6306 27.1441C71.6306 35.6267 78.0396 42.4127 86.7107 42.4127C95.3817 42.4127 101.791 35.6267 101.791 27.1441C101.979 26.5786 101.791 26.2016 101.791 25.8246Z" fill="#D1EDEF"/>
<path fill-rule="evenodd" clip-rule="evenodd" d="M0 26.3902C0 11.8756 11.8756 0 26.3902 0C40.9048 0 52.7804 11.8756 52.7804 26.3902C52.7804 40.9048 40.9048 52.7804 26.3902 52.7804C11.8756 52.7804 0 40.9048 0 26.3902ZM5.65504 26.7672C5.65504 31.8567 7.72856 37.1348 11.6871 41.0933C15.6456 45.0518 20.9237 46.9368 26.2017 47.1253L26.0115 46.9369C26.0121 46.9369 26.0126 46.9369 26.0132 46.9369L5.65504 26.5788C5.65504 26.6419 5.65533 26.705 5.65592 26.7681L5.65504 26.7672ZM30.9142 46.5598L6.22054 21.8662C6.22054 21.8662 6.22054 21.8662 6.22055 21.8662C6.47974 20.7116 6.83612 19.5924 7.2805 18.5177C10.3911 10.9949 17.8134 5.65504 26.3902 5.65504C33.3647 5.65504 39.3968 9.04807 43.1668 14.1376L43.1668 14.1377L40.3393 16.5881L40.3393 16.5882C37.1348 12.2526 32.0452 9.42512 26.3902 9.42512C26.0852 9.42512 25.7819 9.43323 25.4804 9.44925C18.5285 9.8197 12.7163 14.4116 10.3676 20.7352L32.0452 42.4128C35.207 41.3225 37.9274 39.2864 39.9146 36.669C41.1483 35.044 42.0995 33.1949 42.6981 31.209C42.8023 30.8634 42.8958 30.5137 42.9783 30.1603H33.9302V26.3902L33.9303 26.3902H47.1253C47.1253 26.3902 47.1253 26.3902 47.1253 26.3902C47.1253 26.8497 47.11 27.3058 47.0799 27.7582C46.4669 36.9566 39.7267 44.5924 31.1027 46.7484L30.9142 46.5598Z" fill="#D1EDEF"/>
</svg>
