<svg width="172" height="32" viewBox="0 0 172 32" fill="none" xmlns="http://www.w3.org/2000/svg">
<path d="M78.896 22.56C78.976 22.752 79.016 22.912 79.016 23.04C79.016 23.344 78.888 23.6 78.632 23.808C78.392 24.016 78.12 24.12 77.816 24.12C77.608 24.12 77.408 24.064 77.216 23.952C77.04 23.824 76.904 23.648 76.808 23.424L75.224 19.824H66.44L64.856 23.424C64.76 23.648 64.616 23.824 64.424 23.952C64.232 24.064 64.032 24.12 63.824 24.12C63.504 24.12 63.216 24.016 62.96 23.808C62.72 23.6 62.6 23.344 62.6 23.04C62.6 22.912 62.64 22.752 62.72 22.56L69.488 7.75203C69.6 7.49604 69.776 7.29604 70.016 7.15204C70.272 7.00804 70.536 6.93604 70.808 6.93604C71.08 6.93604 71.336 7.00804 71.576 7.15204C71.832 7.29604 72.016 7.49604 72.128 7.75203L78.896 22.56ZM74.36 17.856L70.832 9.91204L67.328 17.856H74.36Z" fill="white"/>
<path d="M87.617 12C90.417 12 91.817 13.576 91.817 16.728V22.968C91.817 23.336 91.705 23.624 91.481 23.832C91.273 24.024 90.977 24.12 90.593 24.12C90.225 24.12 89.929 24.016 89.705 23.808C89.497 23.6 89.393 23.32 89.393 22.968V16.848C89.393 15.856 89.193 15.128 88.793 14.664C88.409 14.2 87.801 13.968 86.969 13.968C85.993 13.968 85.209 14.272 84.617 14.88C84.025 15.488 83.729 16.304 83.729 17.328V22.968C83.729 23.32 83.617 23.6 83.393 23.808C83.185 24.016 82.897 24.12 82.529 24.12C82.161 24.12 81.865 24.016 81.641 23.808C81.417 23.6 81.305 23.32 81.305 22.968V13.2C81.305 12.864 81.417 12.592 81.641 12.384C81.881 12.16 82.177 12.048 82.529 12.048C82.881 12.048 83.161 12.152 83.369 12.36C83.577 12.568 83.681 12.84 83.681 13.176V14.16C84.065 13.456 84.601 12.92 85.289 12.552C85.977 12.184 86.753 12 87.617 12Z" fill="white"/>
<path d="M104.709 6.96003C105.077 6.96003 105.373 7.06403 105.597 7.27204C105.821 7.48004 105.933 7.76004 105.933 8.11203V22.944C105.933 23.312 105.821 23.6 105.597 23.808C105.389 24.016 105.101 24.12 104.733 24.12C104.365 24.12 104.069 24.016 103.845 23.808C103.637 23.6 103.533 23.312 103.533 22.944V21.984C103.181 22.688 102.669 23.232 101.997 23.616C101.325 23.984 100.549 24.168 99.6691 24.168C98.6611 24.168 97.7571 23.912 96.9571 23.4C96.1731 22.888 95.5571 22.168 95.1091 21.24C94.6771 20.312 94.4611 19.248 94.4611 18.048C94.4611 16.832 94.6771 15.768 95.1091 14.856C95.5571 13.944 96.1731 13.24 96.9571 12.744C97.7411 12.248 98.6451 12 99.6691 12C100.549 12 101.317 12.192 101.973 12.576C102.645 12.944 103.157 13.472 103.509 14.16V8.06403C103.509 7.72803 103.613 7.46403 103.821 7.27204C104.045 7.06403 104.341 6.96003 104.709 6.96003ZM100.245 22.248C101.285 22.248 102.093 21.888 102.669 21.168C103.245 20.448 103.533 19.424 103.533 18.096C103.533 16.768 103.245 15.744 102.669 15.024C102.109 14.304 101.301 13.944 100.245 13.944C99.1891 13.944 98.3651 14.304 97.7731 15.024C97.1971 15.728 96.9091 16.736 96.9091 18.048C96.9091 19.36 97.2051 20.392 97.7971 21.144C98.3891 21.88 99.2051 22.248 100.245 22.248Z" fill="white"/>
<path d="M113.393 24.168C111.761 24.168 110.425 23.832 109.385 23.16C109.097 22.984 108.889 22.8 108.761 22.608C108.649 22.416 108.593 22.2 108.593 21.96C108.593 21.704 108.665 21.488 108.809 21.312C108.953 21.136 109.137 21.048 109.361 21.048C109.569 21.048 109.897 21.176 110.345 21.432C110.825 21.688 111.289 21.896 111.737 22.056C112.201 22.216 112.777 22.296 113.465 22.296C114.233 22.296 114.833 22.16 115.265 21.888C115.697 21.616 115.913 21.232 115.913 20.736C115.913 20.416 115.825 20.16 115.649 19.968C115.489 19.776 115.201 19.608 114.785 19.464C114.369 19.304 113.753 19.136 112.937 18.96C111.529 18.656 110.513 18.248 109.889 17.736C109.281 17.208 108.977 16.496 108.977 15.6C108.977 14.912 109.177 14.296 109.577 13.752C109.977 13.192 110.529 12.76 111.233 12.456C111.937 12.152 112.737 12 113.633 12C114.273 12 114.897 12.088 115.505 12.264C116.113 12.424 116.649 12.664 117.113 12.984C117.641 13.336 117.905 13.744 117.905 14.208C117.905 14.464 117.825 14.68 117.665 14.856C117.521 15.032 117.345 15.12 117.137 15.12C116.993 15.12 116.849 15.088 116.705 15.024C116.561 14.96 116.369 14.856 116.129 14.712C115.697 14.456 115.289 14.256 114.905 14.112C114.537 13.968 114.073 13.896 113.513 13.896C112.841 13.896 112.297 14.04 111.881 14.328C111.481 14.616 111.281 15.008 111.281 15.504C111.281 15.952 111.465 16.304 111.833 16.56C112.217 16.8 112.929 17.032 113.969 17.256C115.041 17.48 115.881 17.736 116.489 18.024C117.097 18.312 117.529 18.672 117.785 19.104C118.057 19.52 118.193 20.056 118.193 20.712C118.193 21.752 117.753 22.592 116.873 23.232C116.009 23.856 114.849 24.168 113.393 24.168Z" fill="white"/>
<path d="M127.227 12C130.011 12 131.403 13.576 131.403 16.728V22.968C131.403 23.32 131.291 23.6 131.067 23.808C130.843 24.016 130.547 24.12 130.179 24.12C129.811 24.12 129.515 24.016 129.291 23.808C129.083 23.6 128.979 23.32 128.979 22.968V16.752C128.979 15.792 128.779 15.088 128.379 14.64C127.995 14.192 127.387 13.968 126.555 13.968C125.579 13.968 124.795 14.272 124.203 14.88C123.611 15.488 123.315 16.304 123.315 17.328V22.968C123.315 23.32 123.203 23.6 122.979 23.808C122.771 24.016 122.483 24.12 122.115 24.12C121.747 24.12 121.451 24.016 121.227 23.808C121.003 23.6 120.891 23.32 120.891 22.968V8.11203C120.891 7.76004 121.003 7.48004 121.227 7.27204C121.467 7.06403 121.771 6.96003 122.139 6.96003C122.491 6.96003 122.771 7.06403 122.979 7.27204C123.203 7.46403 123.315 7.72803 123.315 8.06403V14.064C123.715 13.392 124.251 12.88 124.923 12.528C125.595 12.176 126.363 12 127.227 12Z" fill="white"/>
<path d="M139.639 12C141.191 12 142.343 12.392 143.095 13.176C143.863 13.96 144.247 15.152 144.247 16.752V22.968C144.247 23.336 144.143 23.624 143.935 23.832C143.727 24.024 143.439 24.12 143.071 24.12C142.719 24.12 142.439 24.016 142.231 23.808C142.023 23.6 141.919 23.32 141.919 22.968V22.08C141.615 22.752 141.159 23.272 140.551 23.64C139.959 23.992 139.263 24.168 138.463 24.168C137.695 24.168 136.991 24.016 136.351 23.712C135.711 23.392 135.207 22.952 134.839 22.392C134.487 21.832 134.311 21.208 134.311 20.52C134.311 19.672 134.527 19.008 134.959 18.528C135.407 18.032 136.135 17.68 137.143 17.472C138.167 17.264 139.567 17.16 141.343 17.16H141.895V16.464C141.895 15.568 141.711 14.92 141.343 14.52C140.975 14.12 140.383 13.92 139.567 13.92C139.007 13.92 138.479 13.992 137.983 14.136C137.487 14.28 136.943 14.488 136.351 14.76C135.919 15 135.615 15.12 135.439 15.12C135.199 15.12 134.999 15.032 134.839 14.856C134.695 14.68 134.623 14.456 134.623 14.184C134.623 13.944 134.687 13.736 134.815 13.56C134.959 13.368 135.183 13.184 135.487 13.008C136.047 12.704 136.703 12.464 137.455 12.288C138.207 12.096 138.935 12 139.639 12ZM138.895 22.368C139.775 22.368 140.495 22.072 141.055 21.48C141.615 20.872 141.895 20.096 141.895 19.152V18.528H141.463C140.215 18.528 139.255 18.584 138.583 18.696C137.911 18.808 137.431 19 137.143 19.272C136.855 19.528 136.711 19.904 136.711 20.4C136.711 20.976 136.919 21.448 137.335 21.816C137.751 22.184 138.271 22.368 138.895 22.368Z" fill="white"/>
<path d="M153.851 12C154.859 12 155.755 12.256 156.539 12.768C157.339 13.28 157.955 14 158.387 14.928C158.835 15.856 159.059 16.928 159.059 18.144C159.059 19.344 158.843 20.4 158.411 21.312C157.979 22.224 157.363 22.928 156.563 23.424C155.779 23.92 154.875 24.168 153.851 24.168C152.971 24.168 152.195 23.984 151.523 23.616C150.851 23.232 150.339 22.688 149.987 21.984V27.336C149.987 27.672 149.875 27.936 149.651 28.128C149.443 28.336 149.163 28.44 148.811 28.44C148.443 28.44 148.139 28.336 147.899 28.128C147.675 27.92 147.563 27.64 147.563 27.288V13.224C147.563 12.872 147.675 12.592 147.899 12.384C148.123 12.16 148.419 12.048 148.787 12.048C149.139 12.048 149.427 12.16 149.651 12.384C149.875 12.592 149.987 12.872 149.987 13.224V14.208C150.339 13.504 150.851 12.96 151.523 12.576C152.195 12.192 152.971 12 153.851 12ZM153.275 22.248C154.331 22.248 155.147 21.896 155.723 21.192C156.299 20.472 156.587 19.456 156.587 18.144C156.587 16.816 156.291 15.784 155.699 15.048C155.123 14.312 154.315 13.944 153.275 13.944C152.219 13.944 151.403 14.304 150.827 15.024C150.267 15.744 149.987 16.768 149.987 18.096C149.987 19.424 150.267 20.448 150.827 21.168C151.403 21.888 152.219 22.248 153.275 22.248Z" fill="white"/>
<path d="M170.91 21.048C171.134 21.048 171.318 21.136 171.462 21.312C171.606 21.488 171.678 21.712 171.678 21.984C171.678 22.448 171.39 22.84 170.814 23.16C170.254 23.48 169.638 23.728 168.966 23.904C168.31 24.08 167.678 24.168 167.07 24.168C165.214 24.168 163.75 23.632 162.678 22.56C161.606 21.472 161.07 19.992 161.07 18.12C161.07 16.92 161.302 15.856 161.766 14.928C162.246 14 162.91 13.28 163.758 12.768C164.622 12.256 165.598 12 166.686 12C168.254 12 169.494 12.504 170.406 13.512C171.318 14.52 171.774 15.88 171.774 17.592C171.774 18.232 171.486 18.552 170.91 18.552H163.494C163.654 21.032 164.846 22.272 167.07 22.272C167.662 22.272 168.174 22.192 168.606 22.032C169.038 21.872 169.494 21.664 169.974 21.408C170.022 21.376 170.15 21.312 170.358 21.216C170.582 21.104 170.766 21.048 170.91 21.048ZM166.734 13.776C165.806 13.776 165.062 14.072 164.502 14.664C163.942 15.256 163.606 16.088 163.494 17.16H169.686C169.638 16.072 169.358 15.24 168.846 14.664C168.35 14.072 167.646 13.776 166.734 13.776Z" fill="white"/>
<path d="M17.1716 31.0248C18.5492 31.7387 20.1292 32.1146 21.6649 31.9691C23.2091 31.8287 24.6855 31.1983 25.9589 30.301C26.5982 29.852 27.1926 29.3378 27.7427 28.7798C28.2758 28.2134 28.8298 27.6169 29.4275 27.0975C30.6025 26.0461 32.0172 25.109 33.6434 24.9504C35.265 24.7762 36.8561 25.4562 38.0819 26.452C38.7141 26.9363 39.2518 27.5412 39.7934 28.1024C40.072 28.3674 40.4158 28.5958 40.8012 28.5756C41.1768 28.5488 41.5492 28.3498 41.7653 28.0326C41.9847 27.7187 42.0576 27.303 41.9528 26.9324C41.8786 26.6393 41.6709 26.4129 41.4698 26.1812C40.5681 25.1814 39.5486 24.2835 38.3853 23.6067C37.1171 22.8745 35.6752 22.4184 34.2078 22.4177C32.7417 22.4275 31.2991 22.8628 30.0231 23.578C28.74 24.2854 27.6092 25.2565 26.6672 26.3763L26.6639 26.3803C25.9615 27.1014 25.2298 27.8023 24.4017 28.3876C23.5775 28.971 22.6349 29.4213 21.6187 29.561C20.6031 29.6869 19.5628 29.4925 18.641 29.0657C17.7087 28.648 16.9002 28.0104 16.1593 27.3278C15.4016 26.6583 14.7629 25.8595 14.0273 25.1965C13.2884 24.5262 12.4733 23.9376 11.5906 23.4782C9.83806 22.5378 7.74313 22.2389 5.82787 22.7701C4.86503 23.0207 3.95689 23.4443 3.10016 23.952C2.24865 24.4636 1.44596 25.0731 0.796255 25.819C0.484423 26.191 0.154364 26.5995 0.0352303 27.0381C-0.0826016 27.4844 0.100981 27.9726 0.498745 28.2056C0.879583 28.4562 1.40299 28.4483 1.80206 28.2232C2.19526 28.002 2.53965 27.5908 2.90226 27.2554C3.59948 26.5317 4.43798 25.8869 5.37022 25.479C6.30636 25.0542 7.35708 24.8486 8.38307 25.002C9.4097 25.1338 10.3725 25.5606 11.2195 26.1251C12.073 26.6857 12.8346 27.3676 13.5384 28.0953L13.5416 28.0985L13.5455 28.1031C14.5533 29.3006 15.7817 30.3173 17.1716 31.0248Z" fill="white"/>
<path d="M17.1716 19.8159C18.5492 20.5298 20.1292 20.9057 21.6649 20.7602C23.2091 20.6199 24.6855 19.9895 25.9589 19.0922C26.5982 18.6432 27.1926 18.1289 27.7427 17.571C28.2758 17.0045 28.8298 16.4081 29.4275 15.8886C30.6025 14.8373 32.0172 13.9002 33.6434 13.7416C35.265 13.5673 36.8561 14.2473 38.0819 15.2432C38.7141 15.7274 39.2518 16.3324 39.7934 16.8936C40.072 17.1585 40.4158 17.3869 40.8012 17.3667C41.1768 17.34 41.5492 17.1409 41.7653 16.8238C41.9847 16.5099 42.0576 16.0942 41.9528 15.7235C41.8786 15.4305 41.6709 15.204 41.4698 14.9724C40.5681 13.9726 39.5486 13.0746 38.3853 12.3979C37.1171 11.6657 35.6752 11.2095 34.2078 11.2089C32.7417 11.2187 31.2991 11.6539 30.0231 12.3692C28.74 13.0766 27.6092 14.0476 26.6672 15.1675L26.6639 15.1714C25.9615 15.8925 25.2298 16.5934 24.4017 17.1788C23.5775 17.7622 22.6349 18.2125 21.6187 18.3521C20.6031 18.4781 19.5628 18.2836 18.641 17.8568C17.7087 17.4392 16.9002 16.8016 16.1593 16.119C15.4016 15.4494 14.7629 14.6506 14.0273 13.9876C13.2884 13.3174 12.4733 12.7287 11.5906 12.2693C9.83806 11.3289 7.74313 11.0301 5.82787 11.5613C4.86503 11.8119 3.95689 12.2354 3.10016 12.7431C2.24865 13.2547 1.44596 13.8643 0.796255 14.6102C0.484423 14.9821 0.154364 15.3907 0.0352303 15.8292C-0.0826016 16.2756 0.100981 16.7637 0.498745 16.9967C0.879583 17.2473 1.40299 17.2395 1.80206 17.0143C2.19526 16.7931 2.53965 16.382 2.90226 16.0465C3.59948 15.3228 4.43798 14.678 5.37022 14.2702C6.30636 13.8453 7.35708 13.6398 8.38307 13.7931C9.4097 13.9249 10.3725 14.3517 11.2195 14.9162C12.073 15.4768 12.8346 16.1588 13.5384 16.8864L13.5416 16.8897L13.5455 16.8942C14.5533 18.0911 15.7817 19.1078 17.1716 19.8159Z" fill="white"/>
<path d="M17.1716 8.60703C18.5492 9.32096 20.1292 9.69686 21.6649 9.55133C23.2091 9.41102 24.6855 8.78062 25.9589 7.8833C26.5982 7.43432 27.1926 6.92008 27.7427 6.36211C28.2758 5.79566 28.8298 5.1992 29.4275 4.67973C30.6025 3.62841 32.0172 2.69129 33.6434 2.53271C35.265 2.35846 36.8561 3.03847 38.0819 4.03432C38.7141 4.51854 39.2518 5.12349 39.7934 5.68472C40.072 5.94968 40.4158 6.17808 40.8012 6.15785C41.1768 6.1311 41.5492 5.93206 41.7653 5.6149C41.9847 5.301 42.0576 4.8853 41.9528 4.51463C41.8786 4.22161 41.6709 3.99517 41.4698 3.7635C40.5681 2.76373 39.5486 1.86576 38.3853 1.18902C37.1171 0.456813 35.6752 0.00065298 34.2078 3.88352e-07C32.7417 0.00978926 31.2991 0.445068 30.0231 1.16031C28.74 1.86772 27.6092 2.83877 26.6672 3.95862L26.6639 3.96253C25.9615 4.68365 25.2298 5.38453 24.4017 5.96991C23.5775 6.55332 22.6349 7.00361 21.6187 7.14327C20.6031 7.26922 19.5628 7.07474 18.641 6.64795C17.7087 6.23029 16.9002 5.59271 16.1593 4.9101C15.4016 4.24054 14.7629 3.44177 14.0273 2.77873C13.2884 2.10852 12.4733 1.51989 11.5906 1.06046C9.83806 0.120077 7.74313 -0.17881 5.82787 0.352399C4.86503 0.602994 3.95689 1.02653 3.10016 1.53424C2.24865 2.04587 1.44596 2.65539 0.796255 3.40131C0.484423 3.77328 0.154364 4.18181 0.0352303 4.62035C-0.0826016 5.06672 0.100981 5.55486 0.498745 5.78783C0.879583 6.03843 1.40299 6.0306 1.80206 5.80545C2.19526 5.58423 2.53965 5.17309 2.90226 4.83766C3.59948 4.11394 4.43798 3.46918 5.37022 3.06131C6.30636 2.63647 7.35708 2.4309 8.38307 2.58426C9.4097 2.71609 10.3725 3.14288 11.2195 3.70737C12.073 4.26795 12.8346 4.94991 13.5384 5.67755L13.5416 5.68081L13.5455 5.68538C14.5533 6.88223 15.7817 7.89897 17.1716 8.60703Z" fill="white"/>
</svg>
