<svg width="200" height="65" viewBox="0 0 200 65" fill="none" xmlns="http://www.w3.org/2000/svg">
<path d="M81.1647 22.7392L81.3213 25.5413C83.1073 23.3741 85.4521 22.2905 88.3545 22.2905C93.384 22.2905 95.944 25.1818 96.0331 30.9643V46.9861H90.6102V31.2779C90.6102 29.7392 90.2792 28.6008 89.6173 27.8601C88.9553 27.1207 87.872 26.751 86.3686 26.751C84.1804 26.751 82.5497 27.7454 81.4804 29.7316V46.9861H76.0549V22.7392H81.1672H81.1647ZM112.197 47.4349C108.76 47.4349 105.973 46.3487 103.838 44.1752C101.702 42.0016 100.634 39.1065 100.634 35.4912V34.8193C100.634 32.3997 101.098 30.2364 102.029 28.3318C102.958 26.4272 104.265 24.9446 105.947 23.8827C107.629 22.8234 109.504 22.293 111.574 22.293C114.862 22.293 117.404 23.346 119.196 25.452C120.991 27.5593 121.887 30.5385 121.887 34.3935V36.59H106.102C106.268 38.5915 106.932 40.1748 108.101 41.34C109.27 42.5052 110.74 43.0877 112.511 43.0877C114.995 43.0877 117.019 42.0806 118.583 40.0626L121.507 42.8647C120.539 44.3128 119.248 45.4372 117.634 46.2365C116.019 47.0358 114.207 47.4349 112.199 47.4349H112.197ZM111.551 26.6631C110.061 26.6631 108.861 27.1858 107.946 28.2311C107.029 29.2765 106.446 30.7336 106.193 32.6012H116.529V32.197C116.41 30.3741 115.926 28.9973 115.078 28.0628C114.229 27.1297 113.054 26.6631 111.551 26.6631ZM132.892 16.847V22.7405H137.157V26.774H132.892V40.3087C132.892 41.2342 133.076 41.9022 133.44 42.3139C133.804 42.7244 134.455 42.9297 135.394 42.9297C136.032 42.9279 136.669 42.8526 137.29 42.7053V46.9186C136.056 47.2628 134.865 47.4336 133.718 47.4336C129.552 47.4336 127.468 45.1262 127.468 40.5101V26.7727H123.491V22.7392H127.466V16.8458H132.89L132.892 16.847ZM147.069 46.9874H141.644V12.5675H147.069V46.9874ZM158.745 46.9874H153.32V22.7405H158.745V46.9874ZM152.985 16.4429C152.985 15.6079 153.249 14.9132 153.777 14.3599C154.306 13.8079 155.061 13.5313 156.043 13.5313C157.025 13.5313 157.784 13.8079 158.321 14.3599C158.856 14.9132 159.123 15.6079 159.123 16.4442C159.123 17.2652 158.856 17.9485 158.321 18.4941C157.784 19.0397 157.025 19.3125 156.043 19.3125C155.061 19.3125 154.306 19.0397 153.777 18.4941C153.249 17.9498 152.985 17.2652 152.985 16.4442V16.4429ZM166.559 46.9874V26.7727H162.875V22.7392H166.559V20.521C166.559 17.8312 167.302 15.7558 168.79 14.291C170.28 12.8276 172.362 12.0958 175.041 12.0958C175.994 12.0958 177.006 12.2297 178.078 12.4987L177.944 16.7565C177.26 16.6293 176.564 16.5695 175.868 16.5781C173.278 16.5781 171.983 17.9141 171.983 20.5886V22.7392H176.894V26.7727H171.983V46.9861H166.559L166.559 46.9874ZM189.307 39.1894L194.218 22.7405H200L190.402 50.6627C188.928 54.7408 186.427 56.7805 182.9 56.7805C182.111 56.7805 181.24 56.6454 180.288 56.3764V52.1631L181.315 52.2307C182.684 52.2307 183.715 51.9808 184.407 51.4798C185.098 50.9801 185.646 50.14 186.048 48.9595L186.828 46.8752L178.345 22.7405H184.195L189.307 39.1894Z" fill="#D1EDEF"/>
<path d="M46.2884 22.2207L46.2652 22.2108C46.2518 22.2056 46.2385 22.2009 46.2268 22.189C46.1881 22.1474 46.1708 22.09 46.1801 22.0337L47.4692 14.1415L53.5141 20.1968L47.2274 22.8754C47.2102 22.8825 47.1912 22.886 47.1724 22.8853H47.1473C47.1391 22.8801 47.1307 22.8735 47.114 22.8569C46.8801 22.596 46.6003 22.3804 46.2886 22.2206L46.2884 22.2207ZM55.0565 21.7398L61.52 28.2126C62.8624 29.5586 63.5345 30.2299 63.7796 31.0081C63.8163 31.1233 63.8463 31.2385 63.8697 31.3571L48.4229 24.8058C48.4147 24.8023 48.4063 24.7989 48.3979 24.7959C48.3362 24.7709 48.2645 24.7425 48.2645 24.679C48.2645 24.6156 48.3379 24.5855 48.3996 24.5605L48.4196 24.5523L55.0565 21.7398ZM63.6062 33.4346C63.2727 34.0625 62.6223 34.7138 61.5217 35.8176L54.2344 43.1137L44.8093 41.1481L44.7593 41.1383C44.6759 41.1248 44.5875 41.1099 44.5875 41.0347C44.5152 40.2476 44.1196 39.5261 43.4953 39.0424C43.4569 39.004 43.4669 38.9439 43.4787 38.8888C43.4787 38.8806 43.4787 38.8722 43.482 38.8653L45.2547 27.9671L45.2612 27.9304C45.2711 27.8469 45.2862 27.75 45.3613 27.75C46.1286 27.6544 46.8255 27.2543 47.2956 26.6395C47.3106 26.6229 47.3206 26.6044 47.3407 26.5944C47.394 26.5693 47.4574 26.5944 47.5124 26.6179L63.6045 33.4347L63.6062 33.4346ZM52.5585 44.792L40.5753 56.7924L42.6265 44.1674L42.6298 44.1508C42.6315 44.1342 42.635 44.1175 42.6397 44.1024C42.6563 44.0623 42.6997 44.0456 42.7414 44.0289L42.7615 44.0207C43.2106 43.8288 43.6078 43.5329 43.9204 43.1573C43.9605 43.1106 44.0088 43.0655 44.0705 43.0571C44.0865 43.0545 44.1028 43.0545 44.1189 43.0571L52.5568 44.7939L52.5585 44.792ZM38.039 59.3324L36.6882 60.6851L21.7551 39.0724C21.7497 39.0645 21.7441 39.0567 21.7385 39.0489C21.7153 39.0172 21.6902 38.9854 21.6952 38.9487C21.6952 38.922 21.7136 38.8986 21.7318 38.8786L21.7485 38.8568C21.7935 38.79 21.8318 38.7232 21.8735 38.6514L21.9069 38.5929L21.9121 38.5877C21.9356 38.5476 21.9571 38.5092 21.9971 38.4875C22.0321 38.4709 22.0805 38.4776 22.1189 38.4858L38.6628 41.9026C38.7091 41.9097 38.7527 41.9288 38.7896 41.9577C38.8113 41.9795 38.8163 42.0028 38.8213 42.0295C39.0552 42.9159 39.6894 43.6418 40.5355 43.9918C40.5822 44.0152 40.5622 44.0669 40.5407 44.122C40.5299 44.1462 40.5214 44.1713 40.5157 44.1972C40.3073 45.4663 38.5197 56.3846 38.0394 59.3321L38.039 59.3324ZM35.2174 62.1563C34.2219 63.1433 33.6349 63.666 32.9712 63.8764C32.3168 64.0836 31.6145 64.0836 30.9601 63.8764C30.183 63.6293 29.511 62.9579 28.1686 61.6119L13.1721 46.5939L17.0893 40.5102C17.1077 40.4801 17.126 40.4534 17.156 40.4317C17.1976 40.4016 17.2577 40.4151 17.3077 40.4317C18.2068 40.7033 19.1721 40.6544 20.0392 40.2931C20.0842 40.2765 20.1293 40.2647 20.1643 40.2965C20.182 40.3123 20.1974 40.3304 20.211 40.3499L35.2174 62.158L35.2174 62.1563ZM11.7264 45.146L8.28616 41.7009L15.0798 38.7985C15.0972 38.7908 15.1159 38.7869 15.1349 38.7867C15.1916 38.7867 15.2249 38.8435 15.255 38.8953C15.3232 39.0005 15.3955 39.103 15.4717 39.2025L15.4935 39.2293C15.5135 39.2577 15.5 39.2861 15.48 39.3128L11.728 45.146L11.7264 45.146ZM6.76367 40.1762L2.41131 35.8176C1.67091 35.0761 1.13395 34.5384 0.760412 34.0758L13.9943 36.8246C14.0109 36.8278 14.0275 36.8306 14.0443 36.8328C14.126 36.8462 14.216 36.8612 14.216 36.938C14.216 37.0215 14.1176 37.0599 14.0342 37.0916L13.9959 37.1083L6.76367 40.1762ZM0 31.8347C0.0151527 31.554 0.0655133 31.2762 0.15007 31.0081C0.396871 30.2299 1.06724 29.5586 2.4113 28.2126L7.98098 22.6349C10.5454 26.362 13.1168 30.0844 15.6952 33.8019C15.7402 33.8621 15.7902 33.9289 15.7385 33.979C15.4951 34.2478 15.2516 34.5417 15.0798 34.8607C15.0612 34.9017 15.0325 34.9373 14.9964 34.9643C14.9747 34.9777 14.9514 34.9725 14.9264 34.9676H14.9231L0 31.8331V31.8347ZM9.4718 21.1419L16.9575 13.6421C17.6629 13.951 20.226 15.0348 22.5155 16.0034C24.2498 16.7382 25.8307 17.4062 26.3276 17.6233C26.3776 17.6433 26.4227 17.6634 26.4443 17.7135C26.4578 17.7435 26.4509 17.7819 26.4443 17.8137C26.2035 18.9134 26.5313 20.0606 27.3165 20.8664C27.3665 20.9165 27.3165 20.9883 27.2731 21.0501L27.2499 21.0852L19.6458 32.8802C19.6257 32.9136 19.6074 32.942 19.574 32.9637C19.534 32.9887 19.4773 32.9771 19.4306 32.9653C19.1349 32.8877 18.8308 32.8462 18.5251 32.8418C18.2517 32.8418 17.9548 32.8919 17.6547 32.947H17.653C17.6197 32.9522 17.5896 32.9587 17.563 32.9388C17.5335 32.9145 17.5081 32.8859 17.4879 32.8536L9.47022 21.1421L9.4718 21.1419ZM18.4734 12.1274L28.1686 2.41823C29.511 1.0739 30.183 0.400905 30.9601 0.155417C31.6145 -0.0518058 32.3168 -0.0518058 32.9712 0.155417C33.7483 0.400905 34.4203 1.0739 35.7627 2.41823L37.8639 4.52239L30.9685 15.2169C30.9515 15.248 30.9281 15.2753 30.9001 15.297C30.8584 15.3254 30.8 15.3136 30.75 15.297C29.6463 14.9616 28.4484 15.1928 27.5483 15.9149C27.5032 15.9617 27.4366 15.9349 27.3798 15.9097C26.4794 15.5172 19.4756 12.553 18.4733 12.1272L18.4734 12.1274ZM39.328 5.98862L45.6948 12.3646L44.1606 21.88V21.9051C44.1593 21.9268 44.1546 21.9482 44.1472 21.9686C44.1306 22.002 44.0972 22.0087 44.0638 22.0187C43.7358 22.1182 43.4268 22.2723 43.15 22.4746C43.138 22.4832 43.127 22.4927 43.1166 22.503C43.0981 22.523 43.0799 22.5413 43.0499 22.5447C43.0255 22.5454 43.0011 22.5415 42.9782 22.5329L33.2763 18.4048L33.2578 18.3966C33.1961 18.3715 33.1227 18.3414 33.1227 18.278C33.0657 17.7366 32.8891 17.2146 32.6058 16.75C32.5591 16.6732 32.5074 16.593 32.5474 16.5145L39.328 5.98862ZM32.7711 20.3604L41.866 24.218C41.9161 24.2415 41.9711 24.2631 41.9928 24.3148C42.0015 24.346 42.0015 24.3789 41.9928 24.41C41.9661 24.5436 41.9428 24.6956 41.9428 24.8492V25.1047C41.9428 25.1682 41.8777 25.1949 41.8177 25.22L41.7992 25.2265C40.3584 25.8427 21.5716 33.8653 21.5432 33.8653C21.5149 33.8653 21.4849 33.8653 21.4565 33.8369C21.4065 33.7868 21.4565 33.7166 21.5016 33.6532C21.5096 33.6422 21.5172 33.6309 21.5248 33.6198L28.9988 22.0302L29.0123 22.0102C29.0556 21.94 29.1057 21.8615 29.1857 21.8615L29.2607 21.8733C29.4308 21.8968 29.5809 21.9184 29.7327 21.9184C30.8666 21.9184 31.9172 21.3656 32.5509 20.4204C32.566 20.3951 32.5851 20.3726 32.6076 20.3536C32.6526 20.3202 32.7193 20.337 32.771 20.3601L32.7711 20.3604ZM22.3555 35.699L42.8332 26.9534C42.8332 26.9534 42.8632 26.9534 42.8916 26.9818C43.0033 27.0937 43.0984 27.1688 43.1901 27.239L43.2351 27.2673C43.2768 27.2908 43.3185 27.3174 43.3218 27.3609C43.3218 27.3775 43.3218 27.3876 43.3183 27.4026L41.564 38.194L41.5575 38.2374C41.5457 38.3209 41.5342 38.4161 41.4557 38.4161C40.5062 38.4803 39.6495 39.0095 39.1662 39.8305L39.158 39.844C39.1347 39.8824 39.1129 39.9191 39.0746 39.9392C39.0395 39.9558 38.9945 39.9491 38.9578 39.9408L22.6273 36.5675C22.6107 36.5641 22.3738 35.7008 22.3555 35.6991L22.3555 35.699Z" fill="#D1EDEF"/>
</svg>
