<svg width="200" height="64" viewBox="0 0 200 64" fill="none" xmlns="http://www.w3.org/2000/svg">
<path d="M110.767 49.2918L111.235 49.2943L110.977 48.9039L102.955 36.7846C104.94 36.526 106.815 35.6726 108.224 34.2336C109.734 32.6925 110.695 30.4935 110.695 27.6742C110.695 24.8048 109.675 22.4346 107.925 20.7826C106.177 19.132 103.719 18.2157 100.87 18.2157H88.5951H88.3451V18.4657V49.0186V49.2686H88.5951H92.3977H92.6477V49.0186V37.1288H98.3542L106.068 49.1536L106.141 49.2679L106.277 49.2686L110.767 49.2918ZM100.415 33.3082H92.6497V22.1272H100.415C102.17 22.1272 103.629 22.7036 104.647 23.6782C105.664 24.652 106.259 26.0394 106.259 27.6955C106.259 29.3518 105.664 30.7518 104.645 31.738C103.674 32.6782 102.304 33.256 100.661 33.3082H100.415ZM116.653 46.533C118.656 48.5775 121.456 49.7682 124.698 49.8206L124.7 49.8398H124.924C128.603 49.8398 131.645 48.6281 133.896 46.3783L134.048 46.2266L133.921 46.0535L132.272 43.8075L132.097 43.5698L131.891 43.781C130.199 45.5162 127.702 46.4994 125.245 46.4994C120.734 46.4994 117.917 43.2865 117.545 39.3515H135.183H135.433V39.1015V38.2302C135.433 34.8619 134.434 31.8347 132.567 29.6452C130.697 27.4514 127.969 26.1153 124.554 26.1153C118.076 26.1153 113.403 31.4238 113.403 37.9553C113.403 41.4724 114.604 44.4418 116.653 46.533ZM158.001 49.2899L158.251 49.2902V49.0399V33.8312C158.251 31.084 157.25 29.1395 155.624 27.8893C154.008 26.6472 151.805 26.1134 149.436 26.1134C145.75 26.1134 142.846 27.3297 140.415 29.8552L140.275 30.0007L140.388 30.1682L141.991 32.5497L142.166 32.8103L142.381 32.5808C144.306 30.521 146.397 29.5912 148.979 29.5912C150.541 29.5912 151.878 30.0041 152.82 30.7559C153.755 31.5028 154.318 32.598 154.318 34.0132V37.3632C152.511 35.5605 150.081 34.7236 147.238 34.7236C145.312 34.7236 143.317 35.3222 141.799 36.5671C140.274 37.8173 139.243 39.7092 139.243 42.2575C139.243 47.2441 143.383 49.8379 147.238 49.8379C150.051 49.8379 152.479 48.9156 154.318 47.1361V49.036V49.2858L154.568 49.286L158.001 49.2899ZM154.318 44.2858C153.076 45.9462 150.938 46.8191 148.666 46.8654H148.475C145.378 46.8654 143.273 44.9361 143.273 42.3059C143.273 40.9554 143.805 39.8098 144.713 38.9993C145.623 38.187 146.924 37.6999 148.475 37.6999C150.818 37.6999 153.04 38.5728 154.318 40.2815V44.2858ZM174.364 49.8219V49.8398H174.614C178.732 49.8398 181.183 48.1464 182.92 45.8954L183.06 45.7138L182.892 45.5586L180.601 43.452L180.397 43.2643L180.231 43.4868C178.812 45.3937 177.008 46.2709 174.817 46.2709C172.527 46.2709 170.686 45.3841 169.413 43.9123C168.137 42.4369 167.419 40.357 167.419 37.9553C167.419 35.5537 168.137 33.4858 169.413 32.0223C170.685 30.5622 172.527 29.6861 174.817 29.6861C177.031 29.6861 178.832 30.5214 180.229 32.4668L180.393 32.696L180.601 32.505L182.892 30.3984L183.06 30.2434L182.92 30.0619C181.185 27.8085 178.732 26.1172 174.614 26.1172C167.863 26.1172 163.324 31.2862 163.324 37.9572C163.324 44.5914 167.751 49.6964 174.364 49.8219ZM193.66 43.6806V30.1876H197.902H198.152V29.9376V26.9152V26.6652H197.902H193.66V20.8685V20.6185H193.41H189.973H189.723V20.8685V26.6652H186.308H186.058V26.9152V29.9395V30.1895H186.308H189.723V44.4163C189.723 46.1045 190.146 47.4688 191.022 48.4123C191.901 49.359 193.201 49.8437 194.876 49.8437H195.126V49.8367C197.052 49.789 198.287 49.188 199.172 48.3523L199.294 48.2364L199.233 48.0792L198.226 45.5138L198.079 45.1398L197.808 45.4367C197.403 45.8813 196.577 46.2709 195.656 46.2709C194.976 46.2709 194.491 46.0071 194.168 45.5707C193.838 45.1241 193.66 44.4729 193.66 43.6806ZM129.835 31.8124C130.919 33.1222 131.466 34.7953 131.539 36.3287H117.544C117.827 33.0821 120.094 29.4518 124.513 29.4518C126.958 29.4518 128.697 30.4372 129.835 31.8124Z" fill="#D1EDEF" stroke="#D1EDEF" stroke-width="0.5"/>
<path d="M42.1698 31.7594C42.1698 28.232 39.3091 25.3722 35.7798 25.3722C32.2509 25.3722 29.3898 28.232 29.3898 31.7594C29.3898 35.2871 32.2509 38.1469 35.7798 38.1469C39.3091 38.1469 42.1698 35.2871 42.1698 31.7594Z" fill="#D1EDEF"/>
<path fill-rule="evenodd" clip-rule="evenodd" d="M58.8366 20.6267C58.075 20.3655 57.3069 20.1236 56.533 19.9011C56.6613 19.3799 56.78 18.8563 56.889 18.3307C58.6327 9.86978 57.4926 3.05367 53.5991 0.809919C49.8662 -1.34203 43.7609 0.90172 37.5948 6.26514C36.9872 6.79485 36.3931 7.33982 35.8131 7.89953C35.4246 7.52735 35.0293 7.16241 34.6274 6.80487C28.1651 1.0695 21.6877 -1.3471 17.7984 0.903303C14.069 3.06127 12.9643 9.46933 14.5342 17.4877C14.6904 18.2818 14.8667 19.0717 15.0631 19.8568C14.1465 20.117 13.2614 20.3943 12.4145 20.6894C4.8385 23.3295 0 27.4675 0 31.7594C0 36.1924 5.19383 40.6388 13.0853 43.3346C13.7252 43.5522 14.3704 43.7538 15.0203 43.9392C14.8092 44.785 14.6217 45.6366 14.4582 46.4929C12.9615 54.372 14.1304 60.6281 17.85 62.7728C21.6919 64.9871 28.1398 62.711 34.4187 57.2251C34.9149 56.7914 35.4131 56.3315 35.9119 55.8493C36.5402 56.4552 37.1852 57.0435 37.8463 57.6135C43.9281 62.8446 49.9346 64.957 53.651 62.8066C57.4894 60.5857 58.7366 53.8648 57.117 45.6879C56.9935 45.0633 56.8494 44.4254 56.6879 43.7759C57.1407 43.6423 57.5851 43.5043 58.0186 43.3605C66.2223 40.6438 71.5596 36.2516 71.5596 31.7594C71.5596 27.452 66.5653 23.2861 58.8366 20.6267ZM57.0571 40.4603C56.666 40.5897 56.2644 40.7148 55.8552 40.836C54.9495 37.9702 53.727 34.9227 52.2316 31.7746C53.659 28.7008 54.8339 25.6926 55.7143 22.8451C56.4462 23.0572 57.1569 23.2804 57.8416 23.5162C64.4637 25.7945 68.5029 29.1636 68.5029 31.7594C68.5029 34.5245 64.1404 38.1143 57.0574 40.4603H57.0571ZM54.1182 46.2814C54.8342 49.8971 54.9365 53.1662 54.4621 55.7218C54.0358 58.0181 53.1788 59.5489 52.1192 60.1621C49.864 61.467 45.041 59.7709 39.8402 55.2973C39.2438 54.7844 38.6431 54.2368 38.0407 53.6575C40.0571 51.453 42.0723 48.8902 44.039 46.0443C47.4986 45.7376 50.7669 45.2358 53.7308 44.5511C53.8765 45.1399 54.0064 45.717 54.1182 46.2814ZM24.3961 59.9367C22.1929 60.7145 20.4381 60.7367 19.3774 60.1254C17.12 58.8243 16.182 53.8006 17.4617 47.0627C17.6139 46.2664 17.7882 45.4745 17.9843 44.6879C20.9153 45.3359 24.1599 45.8021 27.6277 46.0832C29.6074 48.868 31.6808 51.4277 33.7704 53.6692C33.3263 54.0986 32.8717 54.517 32.407 54.924C29.6305 57.3501 26.8483 59.0709 24.3965 59.9367H24.3961ZM14.074 40.4432C10.5847 39.251 7.70303 37.7018 5.72779 36.0114C3.95301 34.4919 3.05676 32.9835 3.05676 31.7594C3.05676 29.1551 6.94169 25.8328 13.421 23.5748C14.2342 23.2926 15.0556 23.0343 15.8839 22.8002C16.7796 25.7116 17.9542 28.7556 19.3717 31.8338C17.9358 34.9579 16.7444 38.0503 15.8406 40.9959C15.2473 40.8261 14.6582 40.6418 14.074 40.4432ZM17.5343 16.9008C16.1892 10.0306 17.0823 4.84824 19.3299 3.54782C21.7242 2.16257 27.0178 4.13789 32.5973 9.08978C32.9539 9.40634 33.3121 9.73778 33.6709 10.0806C31.5921 12.312 29.5377 14.8524 27.5751 17.621C24.2096 17.9328 20.9878 18.4336 18.0261 19.1044C17.8436 18.374 17.6797 17.6391 17.5343 16.9005V16.9008ZM48.4018 24.5194C47.7022 23.3116 46.9767 22.1189 46.2258 20.9423C48.5091 21.2304 50.6966 21.6134 52.7507 22.0822C52.1341 24.0579 51.3654 26.1237 50.4603 28.2415C49.799 26.9872 49.1127 25.7463 48.4018 24.5194ZM35.814 12.2642C37.2239 13.791 38.6361 15.4959 40.0251 17.3456C37.2075 17.2125 34.3851 17.2119 31.5674 17.3437C32.9577 15.5111 34.3819 13.8087 35.814 12.2642ZM23.1455 24.5403C22.4435 25.7574 21.77 26.9907 21.1256 28.2393C20.2354 26.1288 19.4737 24.0537 18.8517 22.0499C20.8935 21.5931 23.0708 21.2199 25.3393 20.9366C24.5799 22.1205 23.8484 23.3221 23.1455 24.5403ZM25.4045 42.8002C23.0609 42.5388 20.8507 42.1845 18.8096 41.7404C19.4414 39.7011 20.2198 37.5815 21.1291 35.4257C21.7762 36.6752 22.4527 37.9093 23.1578 39.1269C23.8774 40.369 24.6265 41.5938 25.4045 42.8002ZM35.8986 51.4704C34.4497 49.9076 33.0046 48.1792 31.5931 46.32C32.9631 46.3739 34.3601 46.4011 35.7798 46.4011C37.2385 46.4011 38.6804 46.3685 40.0996 46.3052C38.7061 48.1982 37.299 49.9291 35.8986 51.4704ZM50.4894 35.3159C51.4459 37.4951 52.2522 39.6033 52.8925 41.6081C50.8175 42.0813 48.5775 42.4625 46.2172 42.7455C46.9736 41.5469 47.706 40.3334 48.4141 39.1057C49.1339 37.858 49.8259 36.5944 50.4894 35.3159ZM45.7659 37.5793C44.6819 39.4615 43.537 41.308 42.3329 43.1158C40.2098 43.2675 38.0157 43.3457 35.7798 43.3457C33.5531 43.3457 31.3869 43.2763 29.3008 43.1412C28.0655 41.3375 26.8989 39.4878 25.8035 37.596C24.7133 35.7143 23.6949 33.7918 22.7506 31.8328C23.6925 29.8732 24.7078 27.9497 25.7944 26.0664V26.067C26.8806 24.1833 28.038 22.3415 29.2641 20.5457C31.3923 20.3848 33.5743 20.3006 35.7801 20.3006C37.9957 20.3006 40.1806 20.3855 42.3082 20.5476C43.5219 22.3407 44.6719 24.1761 45.7561 26.0503C46.8464 27.9294 47.8753 29.8435 48.841 31.7894C47.8852 33.7553 46.8596 35.6864 45.7662 37.5793H45.7659ZM52.0723 3.45697C54.4684 4.83842 55.4005 10.4089 53.8949 17.7141C53.7962 18.1899 53.6889 18.664 53.5731 19.136C50.6044 18.4513 47.3804 17.9417 44.0051 17.6251C42.0387 14.8264 40.0014 12.2816 37.9562 10.079C38.4921 9.56258 39.0408 9.05952 39.6017 8.57031C44.8849 3.97454 49.8225 2.16004 52.0723 3.45697Z" fill="#D1EDEF"/>
</svg>
