<svg width="200" height="41" viewBox="0 0 200 41" fill="none" xmlns="http://www.w3.org/2000/svg">
<path opacity="0.6" d="M149.233 14.2532V39.6365H141.056V10.2782L149.233 14.2532Z" fill="#D1EDEF"/>
<path d="M33.5037 34.9233L39.6366 40.2611L65.4742 26.8029L62.8053 20.3861L33.5037 34.9233ZM141.056 18.5689L161.84 7.77958L158.319 1.70349L141.056 10.2782V18.5689Z" fill="#899DA1"/>
<path d="M82.5668 12.2657V39.6366H74.7303V0.624634L82.5668 12.2657ZM33.5037 34.9233L39.6366 40.2612L51.4481 10.7325L47.6434 0.624634L33.5037 34.9233Z" fill="#75878B"/>
<path d="M47.6434 0.624634H55.707L70.6417 39.6366H62.3509L47.6434 0.624634ZM83.7592 0.624634L100.965 27.2572V39.6366L74.7303 0.624634H83.7592ZM115.73 0.624634H123.85V39.6366H115.73V0.624634ZM141.056 7.77966H128.563V0.624634H157.694L161.84 7.77966H149.233H141.056Z" fill="#D1EDEF"/>
<path d="M185.86 24.8153V39.6364H177.797V24.8153" fill="#899DA1"/>
<path d="M191.425 0.624634L177.797 24.8154H185.86L200 0.624634H191.425Z" fill="#D1EDEF"/>
<path d="M177.797 24.8154L163.714 0.624634H172.572L182.056 17.2061L177.797 24.8154Z" fill="#75878B"/>
<path d="M3.23683 5.16748C3.23683 10.5621 6.5872 13.7989 13.2879 15.5025L20.3862 17.1493C26.7462 18.6257 30.6076 22.26 30.6076 28.1658C30.6644 30.7211 29.8126 33.2197 28.2794 35.264C28.2794 29.3583 25.213 26.1783 17.8876 24.2475L10.9029 22.6575C5.28112 21.4083 0.965393 18.3986 0.965393 11.9818C0.965393 9.54 1.7604 7.0982 3.23683 5.16748Z" fill="#D1EDEF"/>
<path d="M100.965 25.2697V0.624634H108.802V39.6366H100.965V25.2697Z" fill="#75878B"/>
<path d="M23.9069 26.6894C26.9165 28.6201 28.2794 31.3458 28.2794 35.2641C25.724 38.5009 21.3515 40.2612 16.184 40.2612C7.49574 40.2612 1.30608 35.9455 0 28.5065H8.34753C9.42646 31.9137 12.2658 33.5037 16.1272 33.5037C20.7269 33.5605 23.8501 31.0619 23.9069 26.6894ZM3.2368 5.11073C5.67859 1.93072 9.88075 0 14.9915 0C23.9069 0 29.0176 4.71323 30.3237 11.3004H22.2601C21.3515 8.68825 19.1369 6.64395 15.1051 6.64395C10.7325 6.70074 7.77967 9.19932 7.60931 13.1743C4.68315 11.5606 3.12323 8.40432 3.2368 5.11073Z" fill="#75878B"/>
</svg>
