<svg width="40" height="40" viewBox="0 0 40 40" fill="none" xmlns="http://www.w3.org/2000/svg">
<circle cx="20" cy="20" r="20" fill="#FF8570"/>
<path fill-rule="evenodd" clip-rule="evenodd" d="M15 16V19.5L11 22.5V28H15C15 29.1046 15.8954 30 17 30H19V31H21V30H23C24.1046 30 25 29.1046 25 28H29V22.5L25 19.5V16C25 12.8439 23.0864 9 20 9C16.9136 9 15 12.8439 15 16ZM21 28H23V18V16C23 13.8072 21.6025 11 20 11C18.3975 11 17 13.8072 17 16V18V28H19V22H21V28ZM13 23.5L15 22V26H13V23.5ZM25 26V22L27 23.5V26H25ZM20 19C18.8954 19 18 18.1046 18 17C18 15.8954 18.8954 15 20 15C21.1046 15 22 15.8954 22 17C22 18.1046 21.1046 19 20 19Z" fill="white"/>
</svg>
