<svg width="535" height="110" viewBox="0 0 535 110" fill="none" xmlns="http://www.w3.org/2000/svg">
<path fill-rule="evenodd" clip-rule="evenodd" d="M319.298 30.4019C323.898 32.7861 329.175 34.0415 334.304 33.5555C339.46 33.0869 344.391 30.9816 348.644 27.9849C350.779 26.4855 352.764 24.7682 354.601 22.9048L354.922 22.5635L354.922 22.5634C356.604 20.7751 358.351 18.9171 360.227 17.2863C364.152 13.7753 368.876 10.6457 374.307 10.1162C379.722 9.53426 385.036 11.8052 389.13 15.1309C390.864 16.4592 392.385 18.0596 393.876 19.6276C394.04 19.8006 394.204 19.9733 394.368 20.1451C394.675 20.7717 395.149 21.3157 395.624 21.8618L395.735 21.9884C398.746 25.3273 402.15 28.3261 406.035 30.5861C410.27 33.0314 415.086 34.5548 419.987 34.557C424.883 34.5243 429.7 33.0706 433.962 30.682C438.247 28.3196 442.023 25.0766 445.169 21.3368L445.18 21.3237C447.526 18.9155 449.969 16.5748 452.735 14.6199C455.487 12.6716 458.635 11.1678 462.029 10.7014C465.421 10.2808 468.895 10.9303 471.973 12.3556C475.087 13.7504 477.787 15.8796 480.261 18.1593C481.57 19.3155 482.772 20.5872 483.967 21.8518L483.967 21.8519C485.084 23.033 486.195 24.2079 487.381 25.2771C489.849 27.5154 492.571 29.4812 495.519 31.0155C501.371 34.156 508.368 35.1541 514.764 33.3801C517.979 32.5432 521.012 31.1288 523.873 29.4332C526.717 27.7246 529.398 25.6891 531.567 23.198C532.609 21.9558 533.711 20.5915 534.109 19.1269C534.502 17.6362 533.889 16.006 532.561 15.228C531.289 14.3911 529.541 14.4173 528.208 15.1691C527.266 15.6994 526.408 16.5562 525.55 17.4118C525.213 17.7484 524.876 18.0849 524.534 18.4012C522.206 20.8181 519.405 22.9714 516.292 24.3335C513.166 25.7523 509.657 26.4388 506.23 25.9266C502.802 25.4864 499.586 24.0611 496.758 22.1759C493.908 20.3038 491.364 18.0263 489.014 15.5963L489.003 15.5854L488.99 15.5702C485.624 11.571 481.522 8.1755 476.88 5.81304C472.28 3.42879 467.003 2.17347 461.875 2.65947C456.718 3.12804 451.787 5.23332 447.534 8.22998C445.399 9.7294 443.414 11.4468 441.577 13.3101L441.256 13.6514C439.574 15.4398 437.827 17.2978 435.951 18.9286C432.027 22.4396 427.302 25.5692 421.871 26.0988C416.456 26.6807 411.142 24.4097 407.048 21.084C405.314 19.7557 403.793 18.1553 402.303 16.5873L402.302 16.5873C402.138 16.4142 401.974 16.2416 401.81 16.0698C401.503 15.4433 401.029 14.8993 400.554 14.3531L400.444 14.2265C397.433 10.8877 394.028 7.88882 390.143 5.6288C385.908 3.18353 381.092 1.66014 376.192 1.65796C371.296 1.69065 366.478 3.1443 362.217 5.53291C357.932 7.89536 354.155 11.1383 351.009 14.8781L350.998 14.8912C348.653 17.2994 346.209 19.6401 343.443 21.595C340.691 23.5434 337.543 25.0471 334.149 25.5135C330.758 25.9341 327.283 25.2847 324.205 23.8594C321.092 22.4646 318.391 20.3353 315.917 18.0557C314.609 16.8994 313.406 15.6277 312.211 14.363L312.211 14.363L312.211 14.3629C311.094 13.1819 309.983 12.007 308.797 10.9378C306.33 8.69956 303.608 6.73375 300.659 5.19946C294.807 2.05897 287.811 1.06081 281.414 2.83483C278.199 3.67171 275.166 5.08613 272.305 6.7817C269.461 8.49033 266.781 10.5259 264.611 13.0169C263.57 14.2592 262.467 15.6235 262.069 17.088C261.676 18.5787 262.289 20.2089 263.617 20.9869C264.889 21.8238 266.637 21.7977 267.97 21.0458C268.912 20.5156 269.771 19.6588 270.628 18.8032L270.628 18.8032L270.628 18.8031L270.628 18.8031L270.628 18.8031C270.965 18.4665 271.302 18.13 271.644 17.8137C273.973 15.3968 276.773 13.2436 279.886 11.8815C283.012 10.4627 286.521 9.77617 289.948 10.2883C293.376 10.7286 296.592 12.1539 299.42 14.0391C302.27 15.9111 304.814 18.1886 307.164 20.6186L307.175 20.6295L307.188 20.6448C310.554 24.6418 314.656 28.0373 319.298 30.4019ZM334.304 70.9886C329.175 71.4746 323.898 70.2192 319.298 67.835C314.656 65.4704 310.554 62.0749 307.188 58.0779L307.175 58.0626L307.164 58.0517C304.814 55.6217 302.27 53.3443 299.42 51.4722C296.592 49.587 293.376 48.1617 289.948 47.7214C286.521 47.2093 283.012 47.8958 279.886 49.3146C276.773 50.6767 273.973 52.8299 271.644 55.2469C271.302 55.5631 270.965 55.8995 270.628 56.2361L270.628 56.2363C269.771 57.0919 268.912 57.9487 267.97 58.4789C266.637 59.2308 264.889 59.2569 263.617 58.42C262.289 57.642 261.676 56.0118 262.069 54.5211C262.467 53.0566 263.57 51.6923 264.611 50.45C266.781 47.959 269.461 45.9234 272.305 44.2148C275.166 42.5192 278.199 41.1048 281.414 40.2679C287.811 38.4939 294.807 39.4921 300.659 42.6326C303.608 44.1669 306.33 46.1327 308.797 48.3709C309.983 49.4401 311.094 50.6151 312.211 51.7961L312.211 51.7962L312.211 51.7962L312.211 51.7962L312.211 51.7962C313.406 53.0609 314.609 54.3325 315.917 55.4888C318.391 57.7684 321.092 59.8977 324.205 61.2925C327.283 62.7178 330.758 63.3673 334.149 62.9466C337.543 62.4802 340.691 60.9765 343.443 59.0281C346.209 57.0732 348.653 54.7325 350.998 52.3243L351.009 52.3112C354.155 48.5714 357.932 45.3285 362.217 42.966C366.478 40.5774 371.296 39.1238 376.192 39.0911C381.092 39.0933 385.908 40.6166 390.143 43.0619C394.028 45.3219 397.433 48.3208 400.444 51.6596L400.554 51.7862C401.029 52.3322 401.503 52.8761 401.81 53.5024C401.974 53.6743 402.138 53.847 402.302 54.0201L402.303 54.0202C403.793 55.5882 405.314 57.1886 407.048 58.5169C411.142 61.8426 416.456 64.1135 421.871 63.5317C427.302 63.0021 432.027 59.8725 435.951 56.3615C437.827 54.7308 439.574 52.8729 441.256 51.0846L441.256 51.0844L441.577 50.743C443.414 48.8796 445.399 47.1623 447.534 45.6629C451.787 42.6662 456.718 40.5609 461.875 40.0924C467.003 39.6064 472.28 40.8617 476.88 43.2459C481.522 45.6106 485.624 49.0061 488.99 53.003L489.003 53.0183L489.014 53.0292C491.364 55.4592 493.908 57.7367 496.758 59.6088C499.586 61.4939 502.802 62.9193 506.23 63.3595C509.657 63.8716 513.166 63.1851 516.292 61.7664C519.405 60.4042 522.206 58.251 524.534 55.8341C524.876 55.5178 525.213 55.1813 525.55 54.8447C526.408 53.9891 527.266 53.1322 528.208 52.602C529.541 51.8502 531.289 51.824 532.561 52.6609C533.889 53.4389 534.502 55.0691 534.109 56.5598C533.711 58.0244 532.609 59.3887 531.567 60.6309C529.398 63.1219 526.717 65.1575 523.873 66.8661C521.012 68.5617 517.979 69.9761 514.764 70.813C508.368 72.587 501.371 71.5888 495.519 68.4483C492.571 66.9141 489.849 64.9483 487.381 62.71C486.195 61.6408 485.084 60.4658 483.967 59.2848L483.967 59.2847C482.772 58.0201 481.57 56.7484 480.261 55.5922C477.787 53.3125 475.087 51.1833 471.973 49.7884C468.895 48.3631 465.421 47.7137 462.029 48.1343C458.635 48.6007 455.487 50.1045 452.735 52.0528C449.969 54.0077 447.526 56.3484 445.18 58.7566L445.169 58.7697C442.023 62.5095 438.247 65.7524 433.962 68.1149C429.7 70.5035 424.883 71.9572 419.987 71.9898C415.086 71.9877 410.27 70.4643 406.035 68.019C402.15 65.759 398.746 62.7602 395.735 59.4213L395.624 59.2947C395.149 58.7487 394.675 58.2048 394.368 57.5785C394.208 57.4103 394.047 57.2414 393.886 57.0721L393.878 57.063L393.876 57.0608L393.876 57.0607C392.385 55.4927 390.864 53.8923 389.13 52.564C385.036 49.2383 379.722 46.9674 374.307 47.5493C368.876 48.0789 364.152 51.2085 360.227 54.7194C358.351 56.3502 356.604 58.2081 354.922 59.9964L354.922 59.9965L354.601 60.3379C352.764 62.2013 350.779 63.9186 348.644 65.418C344.391 68.4147 339.46 70.52 334.304 70.9886ZM334.304 108.421C329.175 108.907 323.898 107.652 319.298 105.268C314.656 102.905 310.554 99.5099 307.188 95.5108L307.175 95.4955L307.164 95.4846C304.814 93.0546 302.27 90.7771 299.42 88.905C296.592 87.0199 293.376 85.5946 289.948 85.1543C286.521 84.6422 283.012 85.3287 279.886 86.7475C276.773 88.1096 273.973 90.2628 271.644 92.6797C271.302 92.996 270.965 93.3324 270.628 93.669L270.628 93.6691C269.771 94.5247 268.912 95.3816 267.97 95.9118C266.637 96.6637 264.889 96.6898 263.617 95.8529C262.289 95.0749 261.676 93.4447 262.069 91.954C262.467 90.4895 263.57 89.1252 264.611 87.8829C266.781 85.3919 269.461 83.3563 272.305 81.6477C275.166 79.9521 278.199 78.5377 281.414 77.7008C287.811 75.9268 294.807 76.925 300.659 80.0655C303.608 81.5997 306.33 83.5655 308.797 85.8038C309.983 86.873 311.094 88.0479 312.211 89.2289L312.211 89.229C313.406 90.4937 314.609 91.7654 315.917 92.9216C318.391 95.2013 321.092 97.3305 324.205 98.7253C327.283 100.151 330.758 100.8 334.149 100.38C337.543 99.9131 340.691 98.4093 343.443 96.461C346.209 94.5061 348.653 92.1654 350.998 89.7572L351.009 89.7441C354.155 86.0043 357.932 82.7614 362.217 80.3989C366.478 78.0103 371.296 76.5566 376.192 76.5239C381.092 76.5261 385.908 78.0495 390.143 80.4948C394.028 82.7548 397.433 85.7536 400.444 89.0925L400.554 89.2191C401.029 89.7652 401.503 90.3092 401.81 90.9357C401.974 91.1076 402.138 91.2802 402.303 91.4533C403.793 93.0213 405.314 94.6216 407.048 95.95C411.142 99.2757 416.456 101.547 421.871 100.965C427.302 100.435 432.027 97.3055 435.951 93.7946C437.827 92.1638 439.574 90.3057 441.256 88.5174C441.364 88.4033 441.471 88.2895 441.577 88.1761C443.414 86.3127 445.399 84.5954 447.534 83.0959C451.787 80.0993 456.718 77.994 461.875 77.5254C467.003 77.0394 472.28 78.2948 476.88 80.679C481.522 83.0436 485.624 86.4391 488.99 90.4361L489.003 90.4514L489.014 90.4623C491.364 92.8923 493.908 95.1698 496.758 97.0418C499.586 98.927 502.802 100.352 506.23 100.793C509.657 101.305 513.166 100.618 516.292 99.1994C519.405 97.8373 522.206 95.6841 524.534 93.2672C524.876 92.9509 525.213 92.6144 525.55 92.2777C526.408 91.4221 527.266 90.5653 528.208 90.0351C529.541 89.2832 531.289 89.2571 532.561 90.094C533.889 90.872 534.502 92.5022 534.109 93.9929C533.711 95.4574 532.609 96.8217 531.567 98.064C529.398 100.555 526.717 102.591 523.873 104.299C521.012 105.995 517.979 107.409 514.764 108.246C508.368 110.02 501.371 109.022 495.519 105.881C492.571 104.347 489.849 102.381 487.381 100.143C486.195 99.0739 485.084 97.8989 483.967 96.7179C482.772 95.4532 481.57 94.1815 480.261 93.0252C477.787 90.7456 475.087 88.6163 471.973 87.2215C468.895 85.7962 465.421 85.1468 462.029 85.5674C458.635 86.0338 455.487 87.5375 452.735 89.4859C449.969 91.4408 447.526 93.7815 445.18 96.1897L445.169 96.2028C442.023 99.9426 438.247 103.186 433.962 105.548C429.7 107.937 424.883 109.39 419.987 109.423C415.086 109.421 410.27 107.897 406.035 105.452C402.15 103.192 398.746 100.193 395.735 96.8544C395.698 96.8122 395.661 96.77 395.624 96.7278C395.149 96.1816 394.675 95.6377 394.368 95.0111C394.204 94.8393 394.04 94.6667 393.876 94.4936L393.876 94.4935L393.875 94.4934C392.385 92.9255 390.864 91.3252 389.13 89.9969C385.036 86.6712 379.722 84.4003 374.307 84.9821C368.876 85.5117 364.152 88.6413 360.227 92.1523C358.351 93.783 356.604 95.6409 354.922 97.4291L354.922 97.4292L354.922 97.4293L354.922 97.4293L354.922 97.4294L354.601 97.7708C352.764 99.6342 350.779 101.352 348.644 102.851C344.391 105.848 339.46 107.953 334.304 108.421Z" fill="#2E393F"/>
<path fill-rule="evenodd" clip-rule="evenodd" d="M56.997 28.7439C61.5694 31.1282 66.8137 32.3835 71.9112 31.8975C77.0367 31.4289 81.9375 29.3236 86.1641 26.327C88.2861 24.8276 90.259 23.1102 92.0849 21.2468L92.404 20.9055C94.0757 19.1171 95.8125 17.2591 97.6772 15.6284C101.577 12.1174 106.273 8.98779 111.671 8.4582C117.054 7.8763 122.335 10.1472 126.404 13.473C128.127 14.8012 129.639 16.4016 131.12 17.9695L131.121 17.9696C131.284 18.1427 131.447 18.3153 131.61 18.4872C131.915 19.1137 132.386 19.6576 132.859 20.2038L132.859 20.2038L132.968 20.3305C135.961 23.6693 139.345 26.6681 143.206 28.9281C147.416 31.3734 152.202 32.8968 157.072 32.899C161.939 32.8663 166.727 31.4126 170.962 29.024C175.221 26.6616 178.975 23.4187 182.102 19.6788L182.112 19.6658C184.444 17.2575 186.873 14.9169 189.621 12.962C192.357 11.0136 195.486 9.50982 198.859 9.04343C202.23 8.62281 205.683 9.27227 208.743 10.6976C211.837 12.0924 214.521 14.2217 216.98 16.5013C218.28 17.6575 219.475 18.9291 220.664 20.1938L220.664 20.1939L220.664 20.1943L220.664 20.1945C221.774 21.3753 222.878 22.5501 224.057 23.6192C226.509 25.8574 229.215 27.8232 232.145 29.3575C237.962 32.498 244.915 33.4961 251.273 31.7221C254.468 30.8852 257.483 29.4708 260.327 27.7753C263.153 26.0666 265.817 24.0311 267.974 21.54C269.009 20.2978 270.104 18.9335 270.5 17.4689C270.891 15.9782 270.282 14.3481 268.961 13.57C267.697 12.7331 265.96 12.7593 264.635 13.5112C263.699 14.0414 262.846 14.8982 261.994 15.7537C261.658 16.0904 261.323 16.4269 260.983 16.7432C258.669 19.1601 255.886 21.3134 252.792 22.6755C249.684 24.0943 246.197 24.7808 242.791 24.2686C239.384 23.8284 236.188 22.4031 233.376 20.5179C230.544 18.6458 228.015 16.3683 225.679 13.9383L225.669 13.9274L225.656 13.9122C222.311 9.913 218.233 6.51751 213.62 4.15506C209.047 1.77081 203.803 0.515486 198.706 1.00149C193.58 1.47006 188.679 3.57534 184.453 6.572C182.331 8.07142 180.358 9.78877 178.532 11.6521L178.213 11.9933L178.213 11.9934C176.541 13.7818 174.804 15.6398 172.94 17.2706C169.039 20.7816 164.344 23.9112 158.946 24.4408C153.563 25.0227 148.282 22.7518 144.213 19.426C142.49 18.0977 140.978 16.4974 139.496 14.9295L139.496 14.9294C139.333 14.7563 139.17 14.5837 139.007 14.4118C138.702 13.7853 138.231 13.2413 137.758 12.6951L137.649 12.5685C134.656 9.2297 131.272 6.23086 127.41 3.97084C123.201 1.52557 118.415 0.00218068 113.544 0C108.678 0.0326921 103.89 1.48634 99.6544 3.87495C95.3953 6.2374 91.6419 9.48033 88.5152 13.2202L88.5044 13.2332C86.1728 15.6415 83.744 17.9821 80.9954 19.937C78.2598 21.8854 75.1309 23.3892 71.7578 23.8556C68.3868 24.2762 64.9338 23.6267 61.874 22.2014C58.7797 20.8066 56.0959 18.6773 53.6369 16.3977C52.3362 15.2414 51.1413 13.9698 49.953 12.7051C48.8432 11.524 47.7392 10.3491 46.5601 9.27983C44.1075 7.0416 41.4021 5.07579 38.472 3.5415C32.655 0.401008 25.7014 -0.597153 19.3442 1.17687C16.1483 2.01375 13.1339 3.42817 10.2902 5.12374C7.46383 6.83238 4.79949 8.86792 2.64297 11.359C1.60792 12.6012 0.512369 13.9655 0.116933 15.4301C-0.274181 16.9208 0.335175 18.5509 1.65545 19.329C2.91955 20.1659 4.65687 20.1397 5.98148 19.3878C6.91811 18.8576 7.77128 18.0008 8.62324 17.1452L8.62327 17.1452C8.95847 16.8085 9.29348 16.4721 9.63332 16.1558C11.9476 13.7389 14.7308 11.5856 17.8251 10.2235C20.9324 8.80472 24.42 8.11821 27.8255 8.63037C31.2332 9.0706 34.4291 10.4959 37.2404 12.3811C40.0732 14.2532 42.6014 16.5306 44.9373 18.9607L44.9481 18.9716L44.9611 18.9868C48.3061 22.9838 52.3836 26.3793 56.997 28.7439ZM71.9112 69.3307C66.8137 69.8167 61.5694 68.5614 56.997 66.1771C52.3836 63.8125 48.3061 60.417 44.9611 56.42L44.9481 56.4047L44.9373 56.3938C42.6014 53.9638 40.0732 51.6864 37.2404 49.8143C34.4291 47.9291 31.2332 46.5038 27.8255 46.0636C24.42 45.5514 20.9324 46.2379 17.8251 47.6567C14.7308 49.0188 11.9476 51.172 9.63332 53.589C9.29347 53.9053 8.95844 54.2417 8.62322 54.5784L8.62319 54.5784C7.77124 55.434 6.91809 56.2908 5.98148 56.821C4.65687 57.5729 2.91955 57.599 1.65545 56.7622C0.335175 55.9841 -0.274181 54.3539 0.116933 52.8632C0.512369 51.3987 1.60792 50.0344 2.64297 48.7921C4.79949 46.3011 7.46383 44.2656 10.2902 42.5569C13.1339 40.8614 16.1483 39.4469 19.3442 38.6101C25.7014 36.836 32.655 37.8342 38.472 40.9747C41.4021 42.509 44.1075 44.4748 46.5601 46.713C47.7392 47.7823 48.8433 48.9572 49.953 50.1382C51.1413 51.4029 52.3362 52.6746 53.6369 53.8309C56.0959 56.1105 58.7797 58.2398 61.874 59.6346C64.9338 61.0599 68.3868 61.7094 71.7578 61.2887C75.1309 60.8224 78.2598 59.3186 80.9954 57.3702C83.744 55.4153 86.1728 53.0746 88.5044 50.6664L88.5152 50.6533C91.6419 46.9135 95.3953 43.6706 99.6544 41.3081C103.89 38.9195 108.678 37.4659 113.544 37.4332C118.415 37.4354 123.201 38.9588 127.41 41.404C131.272 43.6641 134.656 46.6629 137.649 50.0017L137.758 50.1283C138.231 50.6742 138.701 51.218 139.006 51.8442C139.168 52.0153 139.331 52.1873 139.494 52.3596L139.496 52.3621L139.496 52.3622C140.978 53.9302 142.49 55.5305 144.213 56.8588C148.282 60.1845 153.563 62.4555 158.946 61.8736C164.344 61.344 169.039 58.2144 172.94 54.7034C174.804 53.0726 176.541 51.2146 178.213 49.4262L178.213 49.4261L178.532 49.0849C180.358 47.2215 182.331 45.5042 184.453 44.0048C188.679 41.0081 193.58 38.9028 198.706 38.4343C203.803 37.9483 209.047 39.2036 213.62 41.5878C218.233 43.9525 222.311 47.348 225.656 51.345L225.669 51.3602L225.679 51.3711C228.015 53.8011 230.544 56.0786 233.376 57.9507C236.188 59.8358 239.384 61.2612 242.791 61.7014C246.197 62.2136 249.684 61.5271 252.792 60.1083C255.886 58.7462 258.669 56.5929 260.983 54.176C261.323 53.8597 261.658 53.5232 261.994 53.1865C262.846 52.3309 263.699 51.4741 264.635 50.944C265.96 50.1921 267.697 50.1659 268.961 51.0028C270.282 51.7808 270.891 53.411 270.5 54.9017C270.104 56.3663 269.009 57.7306 267.974 58.9728C265.817 61.4639 263.153 63.4994 260.327 65.208C257.483 66.9036 254.468 68.318 251.273 69.1549C244.915 70.9289 237.962 69.9308 232.145 66.7903C229.215 65.256 226.509 63.2902 224.057 61.0519C222.878 59.9828 221.774 58.8079 220.664 57.627L220.664 57.6267L220.664 57.6266C219.475 56.3619 218.28 55.0903 216.98 53.9341C214.521 51.6544 211.837 49.5252 208.743 48.1304C205.683 46.705 202.23 46.0556 198.859 46.4762C195.486 46.9426 192.357 48.4464 189.621 50.3947C186.873 52.3497 184.444 54.6903 182.112 57.0985L182.102 57.1116C178.975 60.8514 175.221 64.0944 170.962 66.4568C166.727 68.8454 161.939 70.2991 157.072 70.3318C152.202 70.3296 147.416 68.8062 143.206 66.3609C139.345 64.1009 135.961 61.1021 132.968 57.7632L132.859 57.6366C132.386 57.0907 131.915 56.547 131.611 55.9208C131.452 55.7535 131.293 55.5854 131.134 55.4169L131.126 55.4086L131.124 55.4061L131.121 55.4037L131.121 55.4028C129.639 53.8348 128.127 52.2345 126.404 50.9062C122.335 47.5804 117.054 45.3095 111.671 45.8914C106.273 46.421 101.577 49.5506 97.6772 53.0616C95.8125 54.6923 94.0757 56.5503 92.4041 58.3387L92.0849 58.68C90.259 60.5434 88.2861 62.2607 86.1641 63.7602C81.9375 66.7568 77.0367 68.8621 71.9112 69.3307ZM71.9112 106.763C66.8137 107.249 61.5694 105.994 56.997 103.61C52.3836 101.247 48.3061 97.852 44.9611 93.8528L44.9481 93.8375L44.9373 93.8266C42.6014 91.3966 40.0732 89.1192 37.2404 87.2471C34.4291 85.3619 31.2332 83.9366 27.8255 83.4963C24.42 82.9842 20.9324 83.6707 17.8251 85.0895C14.7308 86.4516 11.9476 88.6048 9.63332 91.0218C9.29356 91.338 8.95862 91.6743 8.6235 92.0109L8.62339 92.011L8.62325 92.0112C7.77128 92.8668 6.91811 93.7236 5.98148 94.2538C4.65687 95.0057 2.91955 95.0318 1.65545 94.1949C0.335175 93.4169 -0.274181 91.7867 0.116933 90.296C0.512369 88.8315 1.60792 87.4672 2.64297 86.2249C4.79949 83.7339 7.46383 81.6983 10.2902 79.9897C13.1339 78.2941 16.1483 76.8797 19.3442 76.0428C25.7014 74.2688 32.655 75.267 38.472 78.4075C41.4021 79.9418 44.1075 81.9076 46.5601 84.1458C47.7392 85.215 48.8432 86.39 49.9529 87.571L49.953 87.571C51.1413 88.8357 52.3362 90.1074 53.6369 91.2637C56.0959 93.5433 58.7797 95.6726 61.874 97.0674C64.9338 98.4927 68.3868 99.1422 71.7578 98.7215C75.1309 98.2551 78.2598 96.7514 80.9954 94.803C83.744 92.8481 86.1728 90.5074 88.5044 88.0992L88.5152 88.0861C91.6419 84.3463 95.3953 81.1034 99.6544 78.7409C103.89 76.3523 108.678 74.8987 113.544 74.866C118.415 74.8681 123.201 76.3915 127.41 78.8368C131.272 81.0968 134.656 84.0957 137.649 87.4345L137.758 87.5611L137.758 87.5612C138.231 88.1073 138.702 88.6513 139.007 89.2778C139.17 89.4496 139.333 89.6223 139.496 89.7954C140.978 91.3633 142.49 92.9637 144.213 94.292C148.282 97.6177 153.563 99.8886 158.946 99.3067C164.344 98.7772 169.039 95.6476 172.94 92.1366C174.804 90.5057 176.541 88.6477 178.213 86.8592C178.319 86.7452 178.426 86.6315 178.532 86.5181C180.358 84.6547 182.331 82.9374 184.453 81.438C188.679 78.4413 193.58 76.336 198.706 75.8674C203.803 75.3814 209.047 76.6368 213.62 79.021C218.233 81.3857 222.311 84.7811 225.656 88.7781L225.669 88.7934L225.679 88.8043C228.015 91.2343 230.544 93.5118 233.376 95.3839C236.188 97.269 239.384 98.6943 242.791 99.1346C246.197 99.6467 249.684 98.9602 252.792 97.5415C255.886 96.1793 258.669 94.0261 260.983 91.6092C261.323 91.2928 261.658 90.9564 261.994 90.6197C262.846 89.7641 263.699 88.9073 264.635 88.3771C265.96 87.6252 267.697 87.5991 268.961 88.436C270.282 89.214 270.891 90.8442 270.5 92.3349C270.104 93.7994 269.009 95.1637 267.974 96.406C265.817 98.897 263.153 100.933 260.327 102.641C257.483 104.337 254.468 105.751 251.273 106.588C244.915 108.362 237.962 107.364 232.145 104.223C229.215 102.689 226.509 100.723 224.057 98.4851C222.878 97.4159 221.773 96.2409 220.664 95.0599C219.475 93.7952 218.281 92.5235 216.98 91.3672C214.521 89.0876 211.837 86.9583 208.743 85.5635C205.683 84.1382 202.23 83.4888 198.859 83.9094C195.486 84.3758 192.357 85.8796 189.621 87.8279C186.873 89.7828 184.444 92.1235 182.112 94.5317L182.102 94.5448C178.975 98.2846 175.221 101.528 170.962 103.89C166.727 106.279 161.939 107.732 157.072 107.765C152.202 107.763 147.416 106.239 143.206 103.794C139.345 101.534 135.961 98.5352 132.968 95.1964C132.932 95.1542 132.895 95.112 132.859 95.0698C132.386 94.5236 131.915 93.9797 131.61 93.3532C131.447 93.1813 131.284 93.0086 131.121 92.8355L131.12 92.8353C129.639 91.2674 128.127 89.6672 126.404 88.3389C122.335 85.0132 117.054 82.7423 111.671 83.3242C106.273 83.8538 101.577 86.9834 97.6772 90.4943C95.8126 92.125 94.0759 93.9829 92.4043 95.7712L92.4043 95.7712L92.4042 95.7713L92.4042 95.7713L92.404 95.7715L92.0849 96.1128C90.259 97.9762 88.2861 99.6935 86.1641 101.193C81.9375 104.19 77.0367 106.295 71.9112 106.763Z" fill="#2E393F"/>
</svg>
